<svg width="200" height="43" viewBox="0 0 200 43" fill="none" xmlns="http://www.w3.org/2000/svg">
<g clip-path="url(#clip0_1331_750)">
<path d="M3.60413 19.9719C3.60413 16.1318 5.1296 12.449 7.84496 9.73363C10.5603 7.01827 14.2431 5.4928 18.0832 5.4928H28.2739C28.2739 9.3329 26.7484 13.0157 24.0331 15.7311C21.3177 18.4464 17.6349 19.9719 13.7948 19.9719H3.60413Z" fill="#69AA72"/>
<path d="M24.4337 21.4363C23.919 21.4371 23.4257 21.6421 23.0621 22.0063C22.6984 22.3705 22.4942 22.8641 22.4942 23.3788C22.4959 24.6433 22.2544 25.8963 21.7829 27.0695C21.3176 28.23 20.6292 29.288 19.7568 30.1835C18.9005 31.0768 17.8729 31.7883 16.7354 32.2754C15.6152 32.7545 14.4095 33.0016 13.1911 33.0016C11.9727 33.0016 10.767 32.7545 9.64679 32.2754C8.51143 31.7876 7.48593 31.0762 6.63143 30.1835C5.76018 29.2847 5.07202 28.225 4.60525 27.0636C4.13143 25.8927 3.88692 24.6418 3.88503 23.3788C3.88361 23.2786 3.87461 23.1787 3.85813 23.0799H6.67028C6.764 23.9773 7.04276 24.8455 7.48896 25.6297C7.93515 26.4139 8.5391 27.0971 9.26266 27.6361C9.98622 28.1751 10.8137 28.5582 11.6928 28.7613C12.5719 28.9644 13.4835 28.983 14.3702 28.8159C15.2569 28.6489 16.0993 28.2998 16.8442 27.7908C17.5891 27.2817 18.2204 26.6237 18.6982 25.8584C19.176 25.093 19.49 24.2369 19.6202 23.3441C19.7505 22.4513 19.6942 21.5412 19.4549 20.6712C21.3872 19.4279 23.0098 17.7595 24.199 15.7935C25.3881 13.8274 26.1124 11.6156 26.3164 9.32702L26.5017 7.21417H15.2233C11.4544 7.2143 7.82214 8.62543 5.04168 11.1697C2.26122 13.714 0.534049 17.2071 0.20025 20.9611L0.0149653 23.0769H0.0418615C0.025378 23.1757 0.016387 23.2756 0.0149653 23.3758C0.0126597 25.1402 0.350546 26.8885 1.01012 28.5249C1.66368 30.1551 2.63021 31.6414 3.85514 32.9C5.07019 34.155 6.52429 35.1538 8.13163 35.8377C9.73168 36.522 11.4539 36.8748 13.1941 36.8748C14.9343 36.8748 16.6565 36.522 18.2566 35.8377C19.8639 35.1538 21.318 34.155 22.533 32.9C23.7579 31.6402 24.7244 30.1529 25.3781 28.5219C26.0375 26.8875 26.3754 25.1412 26.3732 23.3788C26.3736 23.1238 26.3237 22.8713 26.2264 22.6356C26.1292 22.4 25.9864 22.1858 25.8062 22.0054C25.6261 21.825 25.4121 21.6819 25.1766 21.5842C24.9411 21.4865 24.6887 21.4363 24.4337 21.4363V21.4363ZM15.2233 11.0992H22.0489C21.2833 13.6845 19.618 15.9105 17.354 17.375C16.6193 16.7618 15.7586 16.3179 14.833 16.0748C13.9074 15.8316 12.9397 15.7952 11.9984 15.968C11.0572 16.1409 10.1655 16.5188 9.38673 17.0749C8.60794 17.6311 7.96109 18.3518 7.4921 19.186H4.48272C5.16868 16.8642 6.58315 14.8246 8.5172 13.3684C10.4513 11.9122 12.8024 11.1167 15.2233 11.0992V11.0992Z" fill="#193550"/>
<path d="M17.0134 18.899C17.9013 18.899 18.6212 18.2193 18.6212 17.3809C18.6212 16.5424 17.9013 15.8627 17.0134 15.8627C16.1254 15.8627 15.4056 16.5424 15.4056 17.3809C15.4056 18.2193 16.1254 18.899 17.0134 18.899Z" fill="#EEEED4"/>
<path d="M76.0475 31.6568C76.0444 34.0564 75.2288 36.3843 73.7335 38.2611C72.2383 40.1379 70.1516 41.453 67.8133 41.9922C65.4751 42.5315 63.0232 42.2631 60.857 41.2307C58.6908 40.1982 56.9381 38.4627 55.8844 36.3069C55.7621 36.0604 55.6902 35.792 55.6731 35.5174C55.656 35.2427 55.6939 34.9675 55.7847 34.7077C55.8755 34.448 56.0172 34.209 56.2016 34.0048C56.3861 33.8006 56.6094 33.6353 56.8586 33.5186C57.3522 33.2758 57.9216 33.2372 58.4435 33.4112C58.9653 33.5851 59.3976 33.9576 59.6469 34.448C60.2745 35.7494 61.3222 36.8014 62.6211 37.4343C63.9199 38.0671 65.3941 38.244 66.8057 37.9363C68.2174 37.6286 69.4843 36.8544 70.4019 35.7384C71.3196 34.6224 71.8345 33.2298 71.8637 31.7853V29.4603C70.296 30.6677 68.421 31.4112 66.4519 31.6064C64.4827 31.8015 62.4983 31.4405 60.7241 30.5642C58.9498 29.688 57.4569 28.3318 56.4149 26.6495C55.373 24.9673 54.8237 23.0266 54.8295 21.0478C54.8295 18.2341 55.9472 15.5356 57.9368 13.546C59.9263 11.5565 62.6248 10.4387 65.4385 10.4387C68.2522 10.4387 70.9506 11.5565 72.9402 13.546C74.9298 15.5356 76.0475 18.2341 76.0475 21.0478V31.6568ZM71.8637 21.0478C71.8637 19.7766 71.4866 18.534 70.7802 17.4772C70.0738 16.4204 69.0698 15.5969 67.8952 15.1108C66.7207 14.6248 65.4283 14.498 64.1817 14.7467C62.9351 14.9953 61.7902 15.6082 60.892 16.5076C59.9938 17.4071 59.3826 18.5528 59.1357 19.7998C58.8888 21.0467 59.0173 22.3389 59.505 23.5128C59.9926 24.6867 60.8176 25.6896 61.8754 26.3945C62.9332 27.0994 64.1763 27.4747 65.4475 27.473C67.1483 27.4651 68.7771 26.7853 69.9789 25.5818C71.1807 24.3783 71.8582 22.7486 71.8637 21.0478V21.0478Z" fill="#69AA72"/>
<path d="M91.2588 12.5516C91.2572 13.1114 91.0341 13.6479 90.6382 14.0438C90.2423 14.4397 89.7058 14.6628 89.1459 14.6644C88.3022 14.664 87.4666 14.83 86.6871 15.1527C85.9075 15.4755 85.1993 15.9488 84.6028 16.5456C84.0063 17.1424 83.5333 17.8508 83.2109 18.6305C82.8885 19.4102 82.7229 20.2459 82.7237 21.0896V29.5858C82.7237 30.1406 82.5033 30.6727 82.111 31.065C81.7187 31.4573 81.1866 31.6777 80.6318 31.6777C80.077 31.6777 79.5449 31.4573 79.1526 31.065C78.7603 30.6727 78.5399 30.1406 78.5399 29.5858V21.0926C78.5414 18.2794 79.6597 15.5818 81.6489 13.5926C83.6382 11.6034 86.3357 10.4851 89.1489 10.4835C89.7027 10.4788 90.2358 10.6938 90.6313 11.0814C91.0268 11.4691 91.2525 11.9978 91.2588 12.5516V12.5516Z" fill="#69AA72"/>
<path d="M91.1302 21.0477C91.1302 18.9494 91.7525 16.8983 92.9182 15.1536C94.0839 13.409 95.7408 12.0492 97.6794 11.2462C99.6179 10.4433 101.751 10.2332 103.809 10.6425C105.867 11.0519 107.757 12.0623 109.241 13.546C110.725 15.0297 111.735 16.92 112.144 18.978C112.554 21.0359 112.344 23.1691 111.541 25.1076C110.738 27.0462 109.378 28.7031 107.633 29.8688C105.889 31.0346 103.838 31.6568 101.739 31.6568C98.9263 31.6544 96.2293 30.5359 94.2402 28.5468C92.2511 26.5578 91.1326 23.8607 91.1302 21.0477ZM95.3141 21.0477C95.3135 22.3188 95.6899 23.5614 96.3957 24.6185C97.1015 25.6756 98.1049 26.4996 99.2791 26.9862C100.453 27.4729 101.745 27.6004 102.992 27.3526C104.239 27.1048 105.384 26.4928 106.283 25.594C107.181 24.6952 107.793 23.5501 108.041 22.3035C108.289 21.0568 108.162 19.7647 107.675 18.5905C107.188 17.4163 106.364 16.4129 105.307 15.7071C104.25 15.0013 103.007 14.6249 101.736 14.6255C100.038 14.6365 98.4128 15.3172 97.2136 16.5198C96.0145 17.7223 95.3383 19.3495 95.332 21.0477H95.3141Z" fill="#69AA72"/>
<path d="M126.675 12.5127C126.678 12.7909 126.625 13.0669 126.52 13.3245C126.415 13.5821 126.259 13.8162 126.062 14.0129C125.866 14.2097 125.632 14.3652 125.374 14.4704C125.116 14.5756 124.84 14.6283 124.562 14.6255H120.842V29.5439C120.842 30.0987 120.621 30.6308 120.229 31.0231C119.837 31.4155 119.304 31.6358 118.75 31.6358C118.195 31.6358 117.663 31.4155 117.27 31.0231C116.878 30.6308 116.658 30.0987 116.658 29.5439V14.6255H114.333C113.778 14.6255 113.246 14.4051 112.853 14.0128C112.461 13.6205 112.241 13.0884 112.241 12.5336C112.241 11.9788 112.461 11.4467 112.853 11.0544C113.246 10.6621 113.778 10.4417 114.333 10.4417H116.658C116.621 9.00522 116.876 7.57626 117.407 6.24089C117.937 4.90552 118.732 3.69138 119.745 2.67165C120.854 1.53466 122.217 0.677353 123.722 0.170307C123.98 0.0737595 124.255 0.0300754 124.53 0.0418585C124.804 0.0536416 125.074 0.120651 125.323 0.238892C125.571 0.357134 125.793 0.524187 125.976 0.730097C126.158 0.936007 126.298 1.17656 126.385 1.43742C126.568 1.95862 126.538 2.53114 126.301 3.03C126.063 3.52887 125.638 3.91357 125.118 4.10014C124.207 4.41097 123.382 4.93208 122.709 5.62127C121.442 6.88838 120.848 8.53801 120.848 10.4387H124.568C125.123 10.4347 125.656 10.6509 126.051 11.0397C126.446 11.4286 126.67 11.9584 126.675 12.5127V12.5127Z" fill="#193550"/>
<path d="M126.547 21.0477C126.547 18.9494 127.169 16.8983 128.335 15.1536C129.5 13.409 131.157 12.0492 133.096 11.2462C135.034 10.4433 137.167 10.2332 139.225 10.6425C141.283 11.0519 143.174 12.0623 144.657 13.546C146.141 15.0297 147.151 16.92 147.561 18.978C147.97 21.0359 147.76 23.1691 146.957 25.1076C146.154 27.0462 144.794 28.7031 143.05 29.8688C141.305 31.0346 139.254 31.6568 137.156 31.6568C134.343 31.6544 131.646 30.5359 129.657 28.5468C127.667 26.5578 126.549 23.8607 126.547 21.0477ZM130.73 21.0477C130.73 22.318 131.106 23.5599 131.811 24.6166C132.516 25.6733 133.518 26.4973 134.691 26.9845C135.864 27.4717 137.156 27.6002 138.402 27.3539C139.648 27.1075 140.793 26.4973 141.693 25.6003C142.592 24.7033 143.205 23.5599 143.455 22.3144C143.705 21.069 143.58 19.7774 143.096 18.6029C142.612 17.4284 141.791 16.4237 140.736 15.7158C139.682 15.0079 138.441 14.6285 137.171 14.6255C135.467 14.6279 133.833 15.3048 132.627 16.5082C131.42 17.7117 130.74 19.3438 130.733 21.0477H130.73Z" fill="#193550"/>
<path d="M150.257 21.0926C150.254 18.7574 151.021 16.4864 152.441 14.632C153.86 12.7775 155.852 11.4434 158.107 10.8364C160.362 10.2295 162.754 10.3838 164.912 11.2753C167.071 12.1669 168.874 13.7458 170.044 15.7672C170.318 16.25 170.393 16.8212 170.251 17.3581C170.109 17.8951 169.762 18.355 169.285 18.6391C168.799 18.9039 168.231 18.9728 167.696 18.8316C167.161 18.6905 166.701 18.3499 166.41 17.88C165.701 16.6545 164.609 15.6968 163.301 15.1553C161.993 14.6137 160.543 14.5186 159.176 14.8845C157.809 15.2504 156.6 16.057 155.738 17.1794C154.875 18.3017 154.407 19.6771 154.405 21.0926C154.419 22.792 155.101 24.4178 156.303 25.6193C157.505 26.8207 159.131 27.5015 160.83 27.5148C161.909 27.5194 162.97 27.2504 163.916 26.733C164.862 26.2156 165.662 25.4666 166.239 24.5562C166.55 24.0975 167.025 23.7759 167.567 23.6579C168.108 23.54 168.674 23.6348 169.147 23.9227C169.613 24.2305 169.937 24.7105 170.049 25.2574C170.162 25.8043 170.052 26.3733 169.745 26.8394C168.508 28.7649 166.68 30.2373 164.535 31.0359C162.39 31.8345 160.044 31.9162 157.849 31.2688C155.653 30.6213 153.727 29.2796 152.359 27.4449C150.991 25.6102 150.254 23.3813 150.26 21.0926H150.257Z" fill="#193550"/>
<path d="M195.816 29.5858V2.07099C195.816 1.51618 196.037 0.984088 196.429 0.591776C196.821 0.199464 197.353 -0.0209351 197.908 -0.0209351C198.463 -0.0209351 198.995 0.199464 199.387 0.591776C199.78 0.984088 200 1.51618 200 2.07099V29.5858C200 30.1406 199.78 30.6727 199.387 31.065C198.995 31.4573 198.463 31.6777 197.908 31.6777C197.353 31.6777 196.821 31.4573 196.429 31.065C196.037 30.6727 195.816 30.1406 195.816 29.5858V29.5858Z" fill="#193550"/>
<path d="M41.8983 10.5254C40.4914 10.5162 39.0967 10.7866 37.7952 11.3207C36.4936 11.8547 35.311 12.642 34.316 13.6367C33.321 14.6314 32.5335 15.8137 31.999 17.1152C31.4646 18.4166 31.1939 19.8112 31.2026 21.2181C31.2026 27.1771 35.9393 31.615 41.8983 31.615H50.1823C50.4627 31.6254 50.7423 31.5779 51.0035 31.4755C51.2648 31.3731 51.5021 31.2178 51.7006 31.0196C51.8992 30.8213 52.0547 30.5842 52.1575 30.3231C52.2604 30.062 52.3082 29.7825 52.2982 29.5021V21.2181C52.2982 15.2591 47.8573 10.5254 41.8983 10.5254ZM35.3446 21.2181C35.3678 19.4874 36.0659 17.8343 37.29 16.6107C38.5141 15.3871 40.1677 14.6898 41.8983 14.6674C45.4486 14.6674 48.1532 17.6558 48.1532 21.2181C48.1694 22.044 48.0187 22.8646 47.7102 23.6308C47.4016 24.397 46.9415 25.0931 46.3574 25.6771C45.7733 26.2612 45.0773 26.7214 44.311 27.0299C43.5448 27.3385 42.7242 27.4892 41.8983 27.473C38.348 27.473 35.3446 24.7684 35.3446 21.2181Z" fill="#69AA72"/>
<path d="M182.969 10.5254C181.562 10.5162 180.168 10.7866 178.866 11.3207C177.565 11.8548 176.382 12.6421 175.388 13.6368C174.393 14.6316 173.606 15.814 173.071 17.1154C172.537 18.4168 172.267 19.8114 172.276 21.2181C172.276 27.1263 176.929 31.5373 182.816 31.612H191.262C191.542 31.622 191.821 31.5742 192.082 31.4716C192.343 31.369 192.58 31.2137 192.778 31.0155C192.976 30.8172 193.132 30.5803 193.234 30.3194C193.337 30.0585 193.385 29.7793 193.375 29.4991V21.2181C193.369 15.2591 188.931 10.5254 182.969 10.5254ZM176.418 21.2181C176.441 19.488 177.139 17.8352 178.362 16.6117C179.586 15.3882 181.239 14.6906 182.969 14.6674C186.519 14.6674 189.227 17.6558 189.227 21.2181C189.242 22.0441 189.091 22.8648 188.782 23.631C188.474 24.3973 188.013 25.0933 187.429 25.6773C186.845 26.2613 186.148 26.7214 185.382 27.03C184.616 27.3385 183.795 27.4892 182.969 27.473C179.418 27.473 176.418 24.7684 176.418 21.2181Z" fill="#193550"/>
<path d="M0.45126 23.5222C0.570149 23.5222 0.684168 23.475 0.768235 23.3909C0.852302 23.3068 0.89953 23.1928 0.89953 23.0739C0.89953 22.9551 0.852302 22.841 0.768235 22.757C0.684168 22.6729 0.570149 22.6257 0.45126 22.6257C0.332372 22.6257 0.218353 22.6729 0.134286 22.757C0.050219 22.841 0.00299072 22.9551 0.00299072 23.0739C0.00299072 23.1928 0.050219 23.3068 0.134286 23.3909C0.218353 23.475 0.332372 23.5222 0.45126 23.5222V23.5222Z" fill="#193550"/>
<path d="M0.433377 23.6507C0.552265 23.6507 0.666285 23.6035 0.750351 23.5194C0.834418 23.4353 0.881647 23.3213 0.881647 23.2024C0.881647 23.0835 0.834418 22.9695 0.750351 22.8854C0.666285 22.8014 0.552265 22.7542 0.433377 22.7542C0.314489 22.7542 0.200469 22.8014 0.116403 22.8854C0.0323357 22.9695 -0.0148926 23.0835 -0.0148926 23.2024C-0.0148926 23.3213 0.0323357 23.4353 0.116403 23.5194C0.200469 23.6035 0.314489 23.6507 0.433377 23.6507V23.6507Z" fill="#193550"/>
</g>
<defs>
<clipPath id="clip0_1331_750">
<rect width="200" height="42.2688" fill="white"/>
</clipPath>
</defs>
</svg>
